<svg width="80" height="80" viewBox="0 0 80 80" fill="none" xmlns="http://www.w3.org/2000/svg"><mask id="mask0" maskUnits="userSpaceOnUse" x="4" y="1" width="72" height="78" style="mask-type: alpha;"><path d="M33.4843 3.64143L11.3242 15.6631C6.81086 18.1115 4 22.8342 4 27.9689V52.6093C4 57.8226 6.89682 62.6042 11.5177 65.0181L33.6788 76.5951C37.7597 78.7269 42.628 78.716 46.6993 76.5658L68.5381 65.0318C73.128 62.6077 76 57.843 76 52.6523V27.9254C76 22.8138 73.2141 18.1084 68.7323 15.6504L46.8924 3.67223C42.7189 1.38327 37.6683 1.37167 33.4843 3.64143Z" fill="#5AB7F9"></path></mask><g mask="url(#mask0)"><path d="M33.4843 3.64143L11.3242 15.6631C6.81086 18.1115 4 22.8342 4 27.9689V52.6093C4 57.8226 6.89682 62.6042 11.5177 65.0181L33.6788 76.5951C37.7597 78.7269 42.628 78.716 46.6993 76.5658L68.5381 65.0318C73.128 62.6077 76 57.843 76 52.6523V27.9254C76 22.8138 73.2141 18.1084 68.7323 15.6504L46.8924 3.67223C42.7189 1.38327 37.6683 1.37167 33.4843 3.64143Z" fill="#5AB7F9"></path><rect x="31.0596" y="-6.62256" width="62.2446" height="22" transform="rotate(30 31.0596 -6.62256)" fill="#B7F2FF"></rect><path d="M34.3865 6.17165L13.2378 17.7489C9.3916 19.8544 7 23.8901 7 28.2749V52.2696C7 56.7222 9.46535 60.8087 13.4041 62.885L34.5538 74.034C38.0729 75.8891 42.2827 75.8796 45.7934 74.0086L66.6438 62.8965C70.556 60.8116 73 56.7396 73 52.3066V28.2376C73 23.8726 70.6298 19.8519 66.8107 17.7383L45.9594 6.19837C42.3612 4.20699 37.9939 4.1969 34.3865 6.17165Z" stroke="#328FE4" stroke-width="6"></path></g></svg>